<svg width="77" height="24" viewBox="0 0 77 24" fill="none" xmlns="http://www.w3.org/2000/svg">
<g clip-path="url(#clip0_1293_446)">
<path d="M45.238 0.536295C46.1413 0.536295 46.8234 0.68539 47.2843 0.983582C47.5097 1.12933 47.6923 1.33256 47.8135 1.57242C47.9346 1.81227 47.9899 2.08011 47.9737 2.34845C47.9888 2.61138 47.9341 2.87363 47.815 3.10841C47.6959 3.3432 47.5168 3.54209 47.2959 3.68476C46.8433 3.98037 46.1575 4.12817 45.2385 4.12817H42.1071V7.16053H44.8088C45.7359 7.16053 46.4239 7.30787 46.8728 7.60255C47.0936 7.7478 47.2721 7.949 47.3902 8.18575C47.5084 8.42249 47.5619 8.68634 47.5453 8.95051C47.562 9.21509 47.5073 9.47928 47.3869 9.71535C47.2665 9.95141 47.0849 10.1506 46.8612 10.2921C46.4047 10.582 45.7206 10.7272 44.8088 10.7277H42.1071V13.887H45.3536C46.2884 13.887 46.9781 14.0348 47.4226 14.3304C47.6299 14.4866 47.7981 14.6891 47.9137 14.9218C48.0293 15.1545 48.0892 15.411 48.0886 15.671C48.088 15.9309 48.0269 16.1872 47.9101 16.4193C47.7934 16.6515 47.6243 16.8532 47.4162 17.0083C46.9675 17.306 46.2795 17.4551 45.3522 17.4556H40.8658C39.8614 17.4556 39.1756 17.2851 38.8084 16.944C38.4412 16.603 38.2577 15.9637 38.2581 15.0263V3.24247C38.2581 2.2206 38.457 1.51391 38.8549 1.12242C39.2527 0.73093 39.9385 0.535461 40.9122 0.536016H45.2383L45.238 0.536295Z" fill="#F39200"/>
<path d="M61.353 12.2134C61.378 12.9903 61.2291 13.763 60.9171 14.4746C60.6051 15.1862 60.1379 15.8188 59.55 16.3258C58.3476 17.3788 56.7651 17.9054 54.8023 17.9054C53.4679 17.9443 52.1432 17.6674 50.9356 17.0973C49.8733 16.5585 49.3418 15.9211 49.3411 15.1851C49.3319 14.9504 49.3738 14.7166 49.464 14.4998C49.5542 14.283 49.6904 14.0886 49.8632 13.93C50.2453 13.5999 50.7391 13.4292 51.2431 13.453C51.8601 13.5262 52.4668 13.6702 53.051 13.8823C53.7912 14.1367 54.5643 14.2817 55.3462 14.3127C55.8447 14.328 56.3302 14.1514 56.7028 13.8191C56.8764 13.656 57.0144 13.4588 57.1083 13.2397C57.2021 13.0206 57.2497 12.7845 57.2482 12.5461C57.2466 12.3077 57.1959 12.0722 57.0992 11.8544C57.0025 11.6365 56.8619 11.4411 56.6863 11.2803C56.3107 10.9555 55.5164 10.6072 54.3034 10.2353C52.5417 9.71593 51.3072 9.09221 50.5999 8.36409C49.8925 7.63598 49.5389 6.66002 49.5391 5.43622C49.5194 4.70806 49.6616 3.98463 49.9554 3.31837C50.2492 2.65212 50.6873 2.05971 51.2378 1.58411C52.3694 0.581454 53.8434 0.0801258 55.6601 0.0801258C57.0058 0.0801258 58.1092 0.318089 58.9701 0.794013C59.831 1.26994 60.2619 1.86466 60.2626 2.57818C60.2737 2.79924 60.2381 3.02017 60.1581 3.22648C60.0781 3.43279 59.9555 3.61984 59.7983 3.77538C59.4517 4.08419 58.9975 4.24352 58.5343 4.21878C58.0293 4.18189 57.5309 4.08228 57.0504 3.92226C56.555 3.75851 56.0408 3.65886 55.5201 3.62573C55.0329 3.60037 54.5512 3.7392 54.1519 4.02008C53.988 4.14181 53.8559 4.30152 53.767 4.48554C53.6781 4.66956 53.635 4.87243 53.6414 5.07678C53.6414 5.76628 54.3911 6.34705 55.8904 6.81909L56.7017 7.07433C58.3014 7.60919 59.4762 8.2888 60.2264 9.11317C60.9856 9.96302 61.3891 11.0733 61.353 12.2134Z" fill="#F39200"/>
<path d="M72.0648 1.69842C72.3847 1.30673 72.7549 0.959151 73.1657 0.664724C73.3096 0.580844 73.4612 0.510968 73.6183 0.456047C73.7597 0.404221 73.9089 0.376767 74.0594 0.374849C74.2855 0.374882 74.5091 0.421324 74.7166 0.511312C74.924 0.6013 75.1109 0.732925 75.2656 0.89807C75.4321 1.05677 75.5643 1.24799 75.6541 1.45991C75.7439 1.67183 75.7894 1.89996 75.7877 2.13019C75.7818 2.44811 75.7025 2.76034 75.5563 3.0425C75.3619 3.41028 75.1116 3.74548 74.8143 4.03601L70.6634 8.37004L75.8109 13.9811C76.093 14.2863 76.3327 14.6283 76.5233 14.9979C76.677 15.2704 76.7663 15.5746 76.7843 15.8872C76.783 16.1203 76.7334 16.3506 76.6386 16.5636C76.5439 16.7765 76.4062 16.9674 76.234 17.1243C76.0766 17.2916 75.8872 17.4256 75.6772 17.5184C75.4672 17.6111 75.2407 17.6607 75.0112 17.6641C74.7095 17.6681 74.4127 17.5878 74.154 17.4322C73.7086 17.1068 73.3005 16.733 72.9373 16.3176L67.175 9.93832V14.9347C67.175 15.8638 67.0163 16.5511 66.6991 16.9965C66.5205 17.2064 66.2986 17.3747 66.0487 17.49C65.7987 17.6053 65.5268 17.6647 65.2516 17.664C64.9765 17.6634 64.7048 17.6029 64.4553 17.4865C64.2059 17.3701 63.9847 17.2008 63.8071 16.9902C63.4869 16.5418 63.3266 15.8562 63.3262 14.9333V3.0594C63.3262 2.13028 63.4849 1.44078 63.8021 0.990906C63.9802 0.779324 64.2023 0.609356 64.4529 0.492926C64.7035 0.376495 64.9765 0.316423 65.2526 0.316924C65.5288 0.317426 65.8016 0.378491 66.0518 0.495831C66.3019 0.613171 66.5234 0.783943 66.7007 0.996171C67.0171 1.44974 67.1757 2.13702 67.1766 3.05802V7.24129L72.0648 1.69842Z" fill="#F39200"/>
<path d="M6.9468 23.5038L8.5479 20.3553H6.74493V19.7124H9.59843V19.9535L7.80321 23.5038H6.9468Z" fill="#F39200"/>
<path d="M9.82837 24.0001L11.7881 19.5888H12.3708L10.411 24.0001H9.82837Z" fill="#F39200"/>
<path d="M15.3632 22.8708V23.5035H12.5907L14.0118 21.7199C14.1638 21.5379 14.3009 21.3439 14.4219 21.1398C14.491 21.0267 14.5317 20.8984 14.5402 20.766C14.544 20.6999 14.533 20.6338 14.5081 20.5725C14.4831 20.5112 14.4449 20.4562 14.3962 20.4115C14.2883 20.3228 14.1512 20.2777 14.0118 20.2851C13.9372 20.2813 13.8628 20.296 13.7953 20.3279C13.7278 20.3598 13.6691 20.408 13.6246 20.4681C13.5426 20.5889 13.5016 20.733 13.5077 20.879V20.8971H12.7013V20.83C12.6906 20.6641 12.7166 20.4979 12.7775 20.3433C12.8384 20.1887 12.9327 20.0495 13.0536 19.9357C13.3249 19.7212 13.6655 19.6143 14.0104 19.6356C14.3429 19.6184 14.6726 19.7034 14.9556 19.8792C15.0881 19.9686 15.1952 20.0911 15.2662 20.2346C15.3372 20.3781 15.3698 20.5376 15.3607 20.6975C15.3607 21.1086 15.0529 21.6649 14.4374 22.3664L14.3796 22.4321L14.0104 22.8716H15.3618L15.3632 22.8708Z" fill="#F39200"/>
<path d="M17.8576 23.504V22.7694H15.9313V22.4163L17.8576 19.6364H18.5906V22.2253H19.0118V22.7691H18.5912V23.5037L17.8576 23.504ZM17.8692 22.2242V20.9059C17.8692 20.8782 17.8692 20.7809 17.8744 20.6133C17.8772 20.5519 17.8845 20.4907 17.8963 20.4304C17.8257 20.6169 17.7319 20.7938 17.6173 20.9569L16.7556 22.2226H17.8692V22.2242Z" fill="#F39200"/>
<path d="M21.1486 22.8353L21.4727 22.669C21.5239 22.8515 21.6343 23.0116 21.7866 23.1241C21.9431 23.2338 22.1307 23.2903 22.3216 23.2851C22.4342 23.2956 22.5477 23.2812 22.654 23.2428C22.7604 23.2043 22.857 23.1429 22.9369 23.0628C23.0168 22.9827 23.0781 22.8859 23.1165 22.7793C23.1548 22.6727 23.1692 22.559 23.1587 22.4462C23.1648 22.2745 23.1122 22.1058 23.0097 21.9681C22.8266 21.7814 22.6091 21.6322 22.3692 21.5286C22.0604 21.3927 21.7779 21.2034 21.5347 20.9694C21.3958 20.8079 21.322 20.6004 21.3275 20.3874C21.3236 20.2574 21.3483 20.1282 21.4001 20.009C21.4519 19.8898 21.5294 19.7835 21.627 19.6979C21.8123 19.5536 22.0342 19.4641 22.2676 19.4396C22.501 19.4152 22.7366 19.4566 22.9477 19.5593C23.1062 19.6474 23.2364 19.7788 23.3232 19.9382L23.0312 20.1069C22.9736 19.9962 22.884 19.9055 22.7741 19.8467C22.6524 19.7843 22.5172 19.7533 22.3806 19.7564C22.2014 19.7476 22.026 19.8096 21.8919 19.929C21.8307 19.9894 21.7829 20.0621 21.7517 20.1423C21.7204 20.2225 21.7064 20.3083 21.7105 20.3943C21.7105 20.6727 21.951 20.9326 22.432 21.1739C22.5194 21.2177 22.5849 21.2512 22.63 21.2745C22.9016 21.3977 23.1437 21.5779 23.3398 21.803C23.4663 21.9932 23.5289 22.219 23.5185 22.4473C23.5263 22.6037 23.5012 22.76 23.445 22.906C23.3887 23.0521 23.3025 23.1847 23.1919 23.2953C22.9711 23.4755 22.7004 23.5835 22.4164 23.6047C22.1325 23.6259 21.8488 23.5593 21.6038 23.4139C21.3976 23.2712 21.239 23.0695 21.1486 22.8353Z" fill="white"/>
<path d="M24.3446 19.5283H24.7162V22.1239C24.6908 22.4412 24.7916 22.7557 24.9966 22.9988C25.1136 23.1018 25.25 23.1802 25.3978 23.2294C25.5456 23.2785 25.7017 23.2974 25.8569 23.2848C26.0107 23.297 26.1653 23.2779 26.3116 23.2288C26.4578 23.1796 26.5927 23.1014 26.7081 22.9988C26.9134 22.7559 27.0143 22.4412 26.9884 22.1239V19.5283H27.3656V22.0067C27.3998 22.4411 27.2658 22.8721 26.9915 23.2102C26.6684 23.468 26.2677 23.6084 25.8547 23.6084C25.4417 23.6084 25.0409 23.468 24.7179 23.2102C24.4438 22.872 24.3098 22.4411 24.3437 22.0067V19.5283H24.3446Z" fill="white"/>
<path d="M28.3819 23.5037V19.5294H29.1393C29.3602 19.5231 29.5812 19.5386 29.7991 19.5756C29.9303 19.6022 30.0552 19.6538 30.1669 19.7278C30.3008 19.8212 30.4061 19.9502 30.4711 20.1002C30.5447 20.2652 30.5816 20.4442 30.5792 20.6249C30.5922 20.7797 30.569 20.9355 30.5114 21.0799C30.4538 21.2242 30.3634 21.3531 30.2474 21.4562C29.9357 21.6579 29.5663 21.7507 29.1965 21.7203H28.7594V23.504H28.3819V23.5037ZM28.7588 21.4016H29.0174C29.3345 21.432 29.6539 21.3745 29.9407 21.2354C30.0254 21.1651 30.0914 21.0749 30.1327 20.9728C30.174 20.8707 30.1894 20.7599 30.1774 20.6503C30.1781 20.5397 30.1594 20.4297 30.1221 20.3256C30.0866 20.2274 30.0314 20.1375 29.96 20.0614C29.8782 19.9771 29.7737 19.9185 29.6592 19.8927C29.4469 19.8521 29.2308 19.8357 29.0149 19.8436H28.7563V21.403L28.7588 21.4016Z" fill="white"/>
<path d="M31.2869 23.5037V19.5294H32.0443C32.2652 19.5232 32.4862 19.5387 32.7041 19.5756C32.8353 19.6022 32.9602 19.6538 33.0719 19.7278C33.2058 19.8212 33.3111 19.9502 33.376 20.1002C33.4497 20.2652 33.4866 20.4442 33.4842 20.6249C33.4972 20.7798 33.4739 20.9355 33.4163 21.0799C33.3587 21.2242 33.2683 21.3531 33.1523 21.4562C32.8407 21.6579 32.4713 21.7507 32.1015 21.7204H31.6643V23.504H31.2869V23.5037ZM31.6649 21.4017H31.9234C32.2406 21.432 32.56 21.3745 32.8468 21.2354C32.9315 21.1651 32.9975 21.0749 33.0388 20.9728C33.0801 20.8707 33.0955 20.7599 33.0835 20.6504C33.0842 20.5397 33.0655 20.4297 33.0282 20.3256C32.9927 20.2274 32.9375 20.1375 32.8661 20.0615C32.7843 19.9771 32.6798 19.9185 32.5653 19.8927C32.353 19.8521 32.1369 19.8357 31.9209 19.8436H31.6624V21.403L31.6649 21.4017Z" fill="white"/>
<path d="M38.4442 21.5247C38.4461 21.7998 38.3895 22.0722 38.2783 22.3237C38.164 22.5787 38 22.8083 37.796 22.9991C37.5858 23.1955 37.3401 23.3498 37.0721 23.4538C36.524 23.6617 35.919 23.6617 35.3709 23.4538C35.1042 23.3501 34.8601 23.1957 34.6519 22.9991C34.4468 22.808 34.2823 22.5774 34.1683 22.3212C34.0576 22.0704 34.0011 21.799 34.0023 21.5247C34.0008 21.2476 34.0574 20.9732 34.1683 20.7194C34.2824 20.4624 34.4469 20.2311 34.6519 20.039C34.8574 19.8438 35.0995 19.6914 35.3642 19.5906C35.9193 19.387 36.5284 19.387 37.0834 19.5906C37.3484 19.6911 37.591 19.8431 37.7972 20.0379C38.0026 20.2296 38.1671 20.4611 38.2808 20.7183C38.391 20.9727 38.4467 21.2474 38.4442 21.5247ZM36.2182 23.2864C36.457 23.2874 36.6939 23.2433 36.9164 23.1562C37.137 23.0689 37.3387 22.9398 37.5104 22.776C37.6793 22.6128 37.8139 22.4173 37.9064 22.2012C37.9968 21.9867 38.0433 21.7562 38.0433 21.5233C38.0433 21.2905 37.9968 21.06 37.9064 20.8455C37.8126 20.6292 37.6772 20.4335 37.508 20.2697C37.3387 20.1058 37.1389 19.977 36.92 19.8905C36.6957 19.8033 36.4571 19.7591 36.2165 19.7602C35.7379 19.7556 35.2764 19.9387 34.9307 20.2704C34.7623 20.4344 34.6273 20.6296 34.5333 20.8452C34.4433 21.0598 34.397 21.2903 34.397 21.5231C34.397 21.7559 34.4433 21.9863 34.5333 22.2009C34.7231 22.6364 35.0759 22.9798 35.5158 23.1573C35.7395 23.2453 35.9781 23.2891 36.2184 23.2864H36.2182Z" fill="white"/>
<path d="M41.8006 23.5038H41.3402L39.8821 21.6093H39.6545V23.5038H39.2776V19.5295H40.0414C40.3993 19.5034 40.7556 19.5982 41.0535 19.7988C41.1694 19.8987 41.2602 20.0244 41.3187 20.1659C41.3772 20.3073 41.4017 20.4606 41.3903 20.6133C41.3972 20.7487 41.3751 20.884 41.3254 21.0101C41.2757 21.1362 41.1995 21.2501 41.1021 21.3441C40.8819 21.5322 40.5976 21.6278 40.3088 21.611L41.8006 23.5038ZM39.6556 19.8437V21.3125H40.0361C40.2924 21.336 40.5498 21.2798 40.7731 21.1515C40.8482 21.0824 40.9061 20.9966 40.9423 20.9011C40.9784 20.8055 40.9918 20.7028 40.9813 20.6011C40.9921 20.4937 40.9783 20.3853 40.9409 20.2841C40.9034 20.1829 40.8434 20.0916 40.7653 20.0172C40.5476 19.8814 40.2916 19.8203 40.0361 19.8432L39.6556 19.8437Z" fill="white"/>
<path d="M42.9812 23.5038V19.8684H41.8381V19.5295H44.5052V19.8684H43.3582V23.5038H42.9812Z" fill="white"/>
<path d="M46.4892 22.8353L46.8133 22.669C46.8644 22.8515 46.9749 23.0116 47.1271 23.1241C47.2837 23.2338 47.4713 23.2903 47.6622 23.2851C47.7748 23.2956 47.8883 23.2812 47.9946 23.2428C48.101 23.2043 48.1975 23.1429 48.2775 23.0628C48.3574 22.9827 48.4187 22.8859 48.4571 22.7793C48.4954 22.6727 48.5098 22.559 48.4993 22.4462C48.5054 22.2745 48.4528 22.1058 48.3502 21.9681C48.1672 21.7814 47.9497 21.6322 47.7098 21.5286C47.401 21.3927 47.1185 21.2034 46.8752 20.9694C46.7364 20.8079 46.6626 20.6004 46.6681 20.3874C46.6641 20.2574 46.6889 20.1282 46.7407 20.009C46.7925 19.8898 46.87 19.7835 46.9676 19.6979C47.1529 19.5536 47.3748 19.4641 47.6082 19.4396C47.8416 19.4152 48.0772 19.4566 48.2883 19.5593C48.4467 19.6474 48.577 19.7788 48.6638 19.9382L48.3718 20.1069C48.3142 19.9962 48.2245 19.9055 48.1146 19.8467C47.993 19.7843 47.8577 19.7533 47.7211 19.7564C47.542 19.7476 47.3665 19.8096 47.2325 19.929C47.1713 19.9894 47.1235 20.0621 47.0922 20.1423C47.061 20.2225 47.047 20.3083 47.0511 20.3943C47.0511 20.6727 47.2916 20.9326 47.7726 21.1739C47.8599 21.2177 47.9255 21.2512 47.9706 21.2745C48.2422 21.3977 48.4843 21.5779 48.6804 21.803C48.8069 21.9932 48.8694 22.219 48.859 22.4473C48.8668 22.6037 48.8418 22.76 48.7855 22.906C48.7293 23.0521 48.6431 23.1847 48.5325 23.2953C48.3116 23.4755 48.041 23.5835 47.757 23.6047C47.473 23.6259 47.1894 23.5593 46.9444 23.4139C46.7382 23.2712 46.5796 23.0695 46.4892 22.8353Z" fill="white"/>
<path d="M53.9525 21.5247C53.9544 21.7998 53.8978 22.0722 53.7866 22.3237C53.6723 22.5787 53.5083 22.8083 53.3044 22.9991C53.0941 23.1955 52.8484 23.3498 52.5804 23.4538C52.0323 23.6617 51.4273 23.6617 50.8792 23.4538C50.6125 23.3502 50.3683 23.1957 50.1602 22.9991C49.9551 22.808 49.7906 22.5774 49.6766 22.3212C49.5659 22.0704 49.5094 21.799 49.5106 21.5247C49.5092 21.2476 49.5657 20.9732 49.6766 20.7194C49.7907 20.4624 49.9552 20.2311 50.1602 20.039C50.3657 19.8438 50.6078 19.6914 50.8726 19.5906C51.4276 19.387 52.0367 19.387 52.5917 19.5906C52.8567 19.6911 53.0993 19.8431 53.3054 20.0379C53.5108 20.2297 53.6752 20.4611 53.7888 20.7183C53.8991 20.9726 53.9549 21.2474 53.9525 21.5247ZM51.7265 23.2864C51.9653 23.2875 52.2022 23.2433 52.4247 23.1562C52.6453 23.0689 52.847 22.9398 53.0187 22.776C53.1876 22.6128 53.3223 22.4173 53.4147 22.2012C53.5051 21.9867 53.5516 21.7562 53.5516 21.5233C53.5516 21.2905 53.5051 21.06 53.4147 20.8455C53.2252 20.4087 52.8704 20.0652 52.4283 19.8905C52.204 19.8033 51.9654 19.7591 51.7248 19.7602C51.2462 19.7556 50.7847 19.9387 50.439 20.2704C50.2706 20.4344 50.1356 20.6296 50.0416 20.8452C49.9516 21.0598 49.9053 21.2903 49.9053 21.5231C49.9053 21.7559 49.9516 21.9863 50.0416 22.2009C50.2314 22.6364 50.5842 22.9798 51.0241 23.1573C51.2478 23.2453 51.4864 23.2891 51.7267 23.2864H51.7265Z" fill="white"/>
<path d="M54.7874 23.5038V19.5295H55.1643V23.1649H56.5892V23.5038H54.7874Z" fill="white"/>
<path d="M57.0685 19.5283H57.4405V22.1239C57.415 22.4412 57.5158 22.7557 57.7209 22.9988C57.8378 23.1018 57.9742 23.1802 58.122 23.2294C58.2698 23.2785 58.426 23.2974 58.5812 23.2848C58.735 23.297 58.8897 23.278 59.036 23.2288C59.1823 23.1797 59.3172 23.1014 59.4326 22.9988C59.6379 22.7559 59.7388 22.4412 59.713 22.1239V19.5283H60.0899V22.0067C60.124 22.4411 59.9901 22.8721 59.7157 23.2102C59.3927 23.468 58.9919 23.6084 58.5789 23.6084C58.166 23.6084 57.7652 23.468 57.4421 23.2102C57.168 22.872 57.034 22.4411 57.068 22.0067V19.5283H57.0685Z" fill="white"/>
<path d="M61.8443 23.5038V19.8684H60.7011V19.5295H63.3682V19.8684H62.2212V23.5038H61.8443Z" fill="white"/>
<path d="M63.9945 23.5038V19.5295H64.3714V23.5038H63.9945Z" fill="white"/>
<path d="M69.659 21.5247C69.6608 21.7998 69.6043 22.0722 69.4931 22.3237C69.3787 22.5787 69.2148 22.8083 69.0108 22.9991C68.8006 23.1955 68.5549 23.3498 68.2868 23.4538C67.7387 23.6617 67.1337 23.6617 66.5856 23.4538C66.3189 23.3501 66.0748 23.1957 65.8667 22.9991C65.6617 22.808 65.4973 22.5774 65.3833 22.3212C65.2726 22.0704 65.2161 21.799 65.2174 21.5247C65.2159 21.2476 65.2724 20.9732 65.3833 20.7194C65.4974 20.4625 65.6617 20.2311 65.8667 20.039C66.0722 19.8438 66.3143 19.6914 66.579 19.5906C67.1341 19.387 67.7431 19.387 68.2982 19.5906C68.5632 19.6911 68.8058 19.8431 69.0119 20.0379C69.2173 20.2296 69.3819 20.4611 69.4956 20.7183C69.6057 20.9727 69.6614 21.2474 69.659 21.5247ZM67.4329 23.2864C67.6718 23.2874 67.9087 23.2433 68.1312 23.1562C68.3517 23.0689 68.5534 22.9398 68.7251 22.776C68.8942 22.6128 69.0289 22.4174 69.1214 22.2012C69.2118 21.9867 69.2584 21.7562 69.2584 21.5233C69.2584 21.2905 69.2118 21.06 69.1214 20.8455C68.9319 20.4087 68.5771 20.0652 68.135 19.8905C67.9107 19.8033 67.6721 19.7591 67.4315 19.7602C66.9529 19.7556 66.4914 19.9387 66.1457 20.2704C65.9773 20.4344 65.8424 20.6296 65.7483 20.8452C65.6583 21.0598 65.612 21.2903 65.612 21.5231C65.612 21.7559 65.6583 21.9863 65.7483 22.2009C65.9381 22.6364 66.2909 22.9798 66.7308 23.1573C66.9545 23.2452 67.193 23.2891 67.4332 23.2864H67.4329Z" fill="white"/>
<path d="M70.4937 23.5039V19.3608L73.436 22.6863V19.5298H73.7883V23.6214L70.8488 20.29V23.5047L70.4937 23.5039Z" fill="white"/>
<path d="M74.506 22.8353L74.8301 22.669C74.8811 22.8514 74.9915 23.0116 75.1437 23.124C75.3002 23.2338 75.4878 23.2903 75.6787 23.2851C75.7913 23.2956 75.9048 23.2812 76.0111 23.2427C76.1175 23.2043 76.214 23.1429 76.294 23.0628C76.3739 22.9827 76.4352 22.8859 76.4736 22.7793C76.5119 22.6727 76.5263 22.559 76.5158 22.4462C76.5219 22.2745 76.4693 22.1058 76.3667 21.9681C76.1837 21.7814 75.9662 21.6321 75.7263 21.5286C75.4175 21.3927 75.135 21.2034 74.8917 20.9694C74.7529 20.8079 74.6791 20.6004 74.6846 20.3874C74.6807 20.2574 74.7055 20.1282 74.7573 20.009C74.8092 19.8897 74.8867 19.7835 74.9844 19.6979C75.1697 19.5536 75.3916 19.4641 75.625 19.4396C75.8584 19.4151 76.094 19.4566 76.3051 19.5593C76.4635 19.6474 76.5938 19.7788 76.6806 19.9382L76.3886 20.1069C76.331 19.9962 76.2413 19.9055 76.1314 19.8467C76.0098 19.7843 75.8745 19.7533 75.7379 19.7564C75.5588 19.7476 75.3833 19.8096 75.2493 19.929C75.1881 19.9894 75.1403 20.0621 75.109 20.1423C75.0778 20.2224 75.0637 20.3083 75.0679 20.3943C75.0679 20.6727 75.3084 20.9326 75.7894 21.1739C75.8767 21.2177 75.9426 21.2512 75.9874 21.2745C76.259 21.3977 76.5011 21.5779 76.6972 21.803C76.8238 21.9932 76.8864 22.2189 76.8761 22.4473C76.8839 22.6037 76.8589 22.76 76.8026 22.906C76.7464 23.0521 76.6601 23.1847 76.5495 23.2953C76.3287 23.4755 76.058 23.5835 75.7741 23.6047C75.4901 23.6259 75.2065 23.5593 74.9614 23.4139C74.7552 23.2712 74.5965 23.0696 74.506 22.8353Z" fill="white"/>
<path d="M7.34524 10.4981C7.39529 10.5045 7.44562 10.5045 7.49429 10.5084H10.2977C10.3478 10.5045 10.3981 10.5045 10.4468 10.4981C10.5459 10.4855 10.6428 10.4595 10.7349 10.4208C10.9602 10.328 11.1467 10.1602 11.2629 9.9456C11.3791 9.73105 11.418 9.48291 11.3729 9.243C11.3268 9.05198 11.2301 8.877 11.0929 8.73659C10.9557 8.59618 10.7832 8.49557 10.5936 8.44543C10.5461 8.43268 10.496 8.42603 10.4471 8.41577C10.397 8.41189 10.3467 8.4094 10.298 8.40552H7.49429C7.29436 8.40517 7.09788 8.45765 6.92464 8.55766C6.73609 8.66795 6.58634 8.83416 6.49605 9.03335C6.40576 9.23255 6.37937 9.45492 6.42052 9.66978C6.47337 9.88518 6.58996 10.0795 6.75498 10.2274C6.92 10.3752 7.12575 10.4696 7.34524 10.4981Z" fill="#F39200"/>
<path d="M0.946067 2.09305C0.996119 2.09942 1.04645 2.09942 1.09512 2.1033H3.89856C3.94862 2.09942 3.99894 2.09942 4.04761 2.09305C4.1467 2.08039 4.24362 2.05438 4.33576 2.01573C4.56105 1.92291 4.74752 1.75507 4.86373 1.54052C4.97994 1.32598 5.01878 1.07783 4.97371 0.837924C4.92767 0.646904 4.83094 0.471922 4.69376 0.331511C4.55657 0.191101 4.38404 0.0904936 4.19445 0.0403464C4.14689 0.0273213 4.09684 0.0209446 4.04789 0.0106908C3.99784 0.00681099 3.94751 0.00431611 3.89884 0.000436294H1.09512C0.895194 0.000120325 0.698718 0.0525993 0.525468 0.152584C0.336922 0.262872 0.187173 0.429078 0.0968791 0.628275C0.00658561 0.827471 -0.0198032 1.04984 0.0213544 1.26471C0.0742041 1.4801 0.190786 1.67446 0.355806 1.82228C0.520826 1.9701 0.726577 2.06449 0.946067 2.09305Z" fill="#F39200"/>
<path d="M3.4062 8.44509C3.35864 8.43234 3.30859 8.42569 3.25964 8.41544C3.20959 8.41156 3.15926 8.40906 3.11059 8.40518H1.59438C1.39446 8.40484 1.19797 8.45732 1.02473 8.55733C0.836189 8.66762 0.686439 8.83382 0.596145 9.03302C0.505852 9.23221 0.479465 9.45459 0.520622 9.66945C0.574362 9.88448 0.691382 10.0784 0.856484 10.2259C1.02159 10.3734 1.22714 10.4678 1.44644 10.4967C1.49649 10.5031 1.54682 10.5031 1.59549 10.5069H3.11142C3.16147 10.5031 3.2118 10.5031 3.26047 10.4967C3.35955 10.484 3.45647 10.458 3.54861 10.4194C3.77391 10.3265 3.96038 10.1587 4.07659 9.94416C4.1928 9.72961 4.23164 9.48146 4.18657 9.24156C4.13985 9.0508 4.04274 8.87618 3.90542 8.73603C3.76811 8.59588 3.59566 8.49538 3.4062 8.44509Z" fill="#F39200"/>
<path d="M8.88917 16.2382C8.84161 16.2255 8.79156 16.2188 8.74261 16.2086C8.69256 16.2047 8.64223 16.2022 8.59356 16.1983H7.07735C6.87743 16.198 6.68095 16.2505 6.50771 16.3505C6.31916 16.4608 6.16941 16.627 6.07911 16.8262C5.98882 17.0254 5.96244 17.2477 6.00359 17.4626C6.05733 17.6776 6.17435 17.8715 6.33945 18.019C6.50456 18.1665 6.71011 18.2609 6.92941 18.2898C6.97946 18.2962 7.02979 18.2962 7.07846 18.3001H8.59467C8.64472 18.2962 8.69505 18.2962 8.74372 18.2898C8.8428 18.2772 8.93972 18.2511 9.03186 18.2125C9.25716 18.1197 9.44363 17.9519 9.55984 17.7373C9.67605 17.5228 9.71489 17.2746 9.66981 17.0347C9.62286 16.844 9.52563 16.6695 9.3883 16.5294C9.25096 16.3892 9.07857 16.2887 8.88917 16.2382Z" fill="#F39200"/>
<path d="M35.6726 4.48092C34.9936 3.16252 33.9666 2.05614 32.7035 1.28228C32.3351 1.05564 31.9462 0.864049 31.5421 0.710007C31.1124 0.545047 30.6709 0.41276 30.2214 0.314268C29.2333 0.105324 28.226 0.000828594 27.2161 0.00249645C27.2098 0.00249645 27.2059 0.00249571 27.1995 1.53785e-06C27.1738 1.53785e-06 27.1481 1.53785e-06 27.121 1.53785e-06H27.0657C27.0623 0.000639361 27.0588 0.000639361 27.0554 1.53785e-06H8.59106C8.39114 -0.000327495 8.19466 0.0521482 8.02141 0.152145C7.83287 0.262433 7.68312 0.428643 7.59283 0.62784C7.50253 0.827037 7.47614 1.0494 7.5173 1.26427C7.57104 1.4793 7.68806 1.67317 7.85317 1.82069C8.01827 1.96821 8.22382 2.06257 8.44312 2.0915C8.49317 2.09787 8.5435 2.09787 8.59217 2.10175H13.6941C13.7442 2.10702 13.8266 2.11339 13.8766 2.11838C13.914 2.12476 13.9513 2.13141 13.9872 2.14166C14.1767 2.19202 14.3491 2.29271 14.4863 2.43308C14.6234 2.57346 14.7203 2.74833 14.7665 2.93924C14.8116 3.17915 14.7727 3.42729 14.6565 3.64184C14.5403 3.85639 14.3539 4.02422 14.1286 4.11704C14.0364 4.15569 13.9395 4.1817 13.8404 4.19436C13.7915 4.20073 13.74 4.20074 13.6914 4.20462H1.09658C0.896659 4.2043 0.700181 4.25677 0.526931 4.35676C0.338385 4.46705 0.188638 4.63326 0.098344 4.83245C0.00805045 5.03165 -0.0183384 5.25402 0.0228193 5.46888C0.0765584 5.68391 0.193579 5.87778 0.35868 6.02531C0.523782 6.17283 0.729336 6.26718 0.948638 6.29611C0.997583 6.30249 1.04902 6.30249 1.09769 6.30637H16.2614C16.3115 6.31025 16.3939 6.31801 16.4439 6.32299C16.4813 6.32937 16.5186 6.33602 16.5545 6.34627C16.7441 6.39666 16.9165 6.49738 17.0536 6.63781C17.1908 6.77824 17.2876 6.95317 17.3338 7.14413C17.3789 7.38404 17.34 7.63218 17.2238 7.84673C17.1076 8.06128 16.9211 8.22912 16.6958 8.32194C16.6037 8.36058 16.5068 8.38659 16.4077 8.39925C16.3588 8.40563 16.3073 8.40563 16.2587 8.40951H14.0058C13.8058 8.40917 13.6094 8.46164 13.4361 8.56165C13.2476 8.67194 13.0978 8.83815 13.0075 9.03735C12.9172 9.23654 12.8909 9.45891 12.932 9.67377C12.9858 9.88881 13.1028 10.0827 13.2679 10.2302C13.433 10.3777 13.6385 10.4721 13.8578 10.501C13.9068 10.5074 13.9582 10.5074 14.0069 10.5113H19.5651C20.0537 10.5113 20.4871 10.8682 20.4035 11.282C20.3811 11.486 20.2818 11.6738 20.1261 11.8072C19.9703 11.9405 19.7697 12.0094 19.5651 11.9997H5.66677C5.46685 11.9994 5.27037 12.0519 5.09712 12.1519C4.90858 12.2622 4.75883 12.4284 4.66854 12.6276C4.57824 12.8268 4.55185 13.0491 4.59301 13.264C4.64675 13.479 4.76377 13.6729 4.92887 13.8204C5.09398 13.9679 5.29953 14.0623 5.51883 14.0912C5.56888 14.0976 5.61921 14.0976 5.66788 14.1015H15.0436C15.0936 14.1067 15.176 14.1131 15.2261 14.1181C15.2634 14.1245 15.3008 14.1311 15.3367 14.1414C15.5262 14.1918 15.6987 14.2925 15.8358 14.4329C15.973 14.5733 16.0698 14.7483 16.116 14.9392C16.161 15.1791 16.1222 15.4273 16.006 15.6418C15.8898 15.8564 15.7033 16.0242 15.478 16.117C15.3859 16.1557 15.289 16.1817 15.1899 16.1944C15.1398 16.2007 15.0895 16.2007 15.0408 16.2046H12.2755C12.0756 16.2043 11.8791 16.2568 11.7059 16.3568C11.5173 16.467 11.3676 16.6333 11.2773 16.8325C11.187 17.0317 11.1606 17.254 11.2018 17.4689C11.2555 17.6839 11.3725 17.8778 11.5376 18.0253C11.7027 18.1728 11.9083 18.2672 12.1276 18.2961C12.1776 18.3025 12.228 18.3025 12.2766 18.3064H27.4235C30.3221 18.3064 32.6037 17.4682 34.2684 15.792C35.9331 14.1157 36.7651 11.8407 36.7644 8.96682C36.7764 7.40403 36.4013 5.86267 35.6726 4.48092ZM31.0355 12.6707C30.1599 13.5894 28.8456 14.0486 27.0928 14.0483H25.0871V3.37877H27.012C28.7905 3.37877 30.1248 3.8037 31.0151 4.65356C31.9053 5.50343 32.3502 6.77971 32.3499 8.48239C32.3493 10.3571 31.9112 11.7532 31.0355 12.6707Z" fill="white"/>
</g>
<defs>
<clipPath id="clip0_1293_446">
<rect width="76.875" height="24" fill="white"/>
</clipPath>
</defs>
</svg>
